<svg xmlns="http://www.w3.org/2000/svg" xmlns:xlink="http://www.w3.org/1999/xlink" contentStyleType="text/css" data-diagram-type="DESCRIPTION" height="921px" preserveAspectRatio="none" style="width:600px;height:921px;background:#FFFFFF;" version="1.1" viewBox="0 0 600 921" width="600px" zoomAndPan="magnify"><defs/><g><!--cluster Sistema--><g class="cluster" data-entity="Sistema" data-source-line="4" data-uid="ent0003" id="cluster_Sistema"><rect fill="none" height="763" rx="2.5" ry="2.5" style="stroke:#181818;stroke-width:1;" width="500.97" x="93.11" y="7"/><text fill="#000000" font-family="sans-serif" font-size="14" font-weight="bold" lengthAdjust="spacing" textLength="63.4375" x="311.8763" y="21.9951">Sistema</text></g><g class="entity" data-entity="Register" data-source-line="5" data-uid="ent0004" id="entity_Register"><ellipse cx="201.5214" cy="57.0005" fill="#F1F1F1" rx="61.3314" ry="14.7805" style="stroke:#181818;stroke-width:0.5;"/><text fill="#000000" font-family="sans-serif" font-size="14" lengthAdjust="spacing" textLength="68.6943" x="164.1743" y="60.7481">Cadastrar</text></g><g class="entity" data-entity="Login" data-source-line="6" data-uid="ent0005" id="entity_Login"><ellipse cx="490.4989" cy="509.9983" fill="#F1F1F1" rx="39.6189" ry="14.5683" style="stroke:#181818;stroke-width:0.5;"/><text fill="#000000" font-family="sans-serif" font-size="14" lengthAdjust="spacing" textLength="39.5869" x="468.4315" y="513.5634">Logar</text></g><g class="entity" data-entity="ImportHTML" data-source-line="7" data-uid="ent0006" id="entity_ImportHTML"><ellipse cx="201.5197" cy="123.9999" fill="#F1F1F1" rx="74.2997" ry="17.2599" style="stroke:#181818;stroke-width:0.5;"/><text fill="#000000" font-family="sans-serif" font-size="14" lengthAdjust="spacing" textLength="104.207" x="146.4162" y="127.7475">Importar HTML</text></g><g class="entity" data-entity="ReviewImport" data-source-line="8" data-uid="ent0007" id="entity_ReviewImport"><ellipse cx="490.4997" cy="726.9959" fill="#F1F1F1" rx="87.5797" ry="19.9159" style="stroke:#181818;stroke-width:0.5;"/><text fill="#000000" font-family="sans-serif" font-size="14" lengthAdjust="spacing" textLength="136.2402" x="422.3795" y="729.8426">Revisar importa&#231;&#227;o</text></g><g class="entity" data-entity="CreateNote" data-source-line="9" data-uid="ent0008" id="entity_CreateNote"><ellipse cx="201.5246" cy="190.9989" fill="#F1F1F1" rx="61.9946" ry="14.7989" style="stroke:#181818;stroke-width:0.5;"/><text fill="#000000" font-family="sans-serif" font-size="14" lengthAdjust="spacing" textLength="69.7129" x="163.6682" y="194.7465">Criar nota</text></g><g class="entity" data-entity="EditNote" data-source-line="10" data-uid="ent0009" id="entity_EditNote"><ellipse cx="201.5228" cy="255.9966" fill="#F1F1F1" rx="64.5328" ry="15.3066" style="stroke:#181818;stroke-width:0.5;"/><text fill="#000000" font-family="sans-serif" font-size="14" lengthAdjust="spacing" textLength="77.4033" x="159.8211" y="259.7441">Editar nota</text></g><g class="entity" data-entity="DeleteNote" data-source-line="11" data-uid="ent0010" id="entity_DeleteNote"><ellipse cx="201.5204" cy="321.9961" fill="#F1F1F1" rx="66.5304" ry="15.7061" style="stroke:#181818;stroke-width:0.5;"/><text fill="#000000" font-family="sans-serif" font-size="14" lengthAdjust="spacing" textLength="83.1934" x="156.9238" y="325.7436">Excluir nota</text></g><g class="entity" data-entity="AddTag" data-source-line="12" data-uid="ent0011" id="entity_AddTag"><ellipse cx="201.5174" cy="389.0015" fill="#F1F1F1" rx="70.1074" ry="16.4215" style="stroke:#181818;stroke-width:0.5;"/><text fill="#000000" font-family="sans-serif" font-size="14" lengthAdjust="spacing" textLength="93.1191" x="151.9578" y="392.749">Adicionar tag</text></g><g class="entity" data-entity="GroupInfo" data-source-line="13" data-uid="ent0012" id="entity_GroupInfo"><ellipse cx="201.5248" cy="461.001" fill="#F1F1F1" rx="92.4048" ry="20.881" style="stroke:#181818;stroke-width:0.5;"/><text fill="#000000" font-family="sans-serif" font-size="14" lengthAdjust="spacing" textLength="147.1641" x="127.9428" y="463.8476">Agrupar informa&#231;&#245;es</text></g><g class="entity" data-entity="FilterTag" data-source-line="14" data-uid="ent0013" id="entity_FilterTag"><ellipse cx="201.5162" cy="534.0012" fill="#F1F1F1" rx="71.3562" ry="16.6712" style="stroke:#181818;stroke-width:0.5;"/><text fill="#000000" font-family="sans-serif" font-size="14" lengthAdjust="spacing" textLength="96.4756" x="150.2784" y="537.7488">Filtrar por tag</text></g><g class="entity" data-entity="ViewNote" data-source-line="15" data-uid="ent0014" id="entity_ViewNote"><ellipse cx="201.5181" cy="602.9956" fill="#F1F1F1" rx="74.0781" ry="17.2156" style="stroke:#181818;stroke-width:0.5;"/><text fill="#000000" font-family="sans-serif" font-size="14" lengthAdjust="spacing" textLength="103.6328" x="146.7017" y="606.7432">Visualizar nota</text></g><g class="entity" data-entity="Search" data-source-line="16" data-uid="ent0015" id="entity_Search"><ellipse cx="201.5172" cy="669.9961" fill="#F1F1F1" rx="45.7372" ry="14.6461" style="stroke:#181818;stroke-width:0.5;"/><text fill="#000000" font-family="sans-serif" font-size="14" lengthAdjust="spacing" textLength="47.8037" x="174.6153" y="673.7437">Buscar</text></g><g class="entity" data-entity="ManageTags" data-source-line="17" data-uid="ent0016" id="entity_ManageTags"><ellipse cx="201.5195" cy="737.0019" fill="#F1F1F1" rx="73.9595" ry="17.1919" style="stroke:#181818;stroke-width:0.5;"/><text fill="#000000" font-family="sans-serif" font-size="14" lengthAdjust="spacing" textLength="103.3252" x="146.8569" y="740.7495">Gerenciar tags</text></g><!--entity User--><g class="entity" data-entity="User" data-source-line="2" data-uid="ent0002" id="entity_User"><ellipse cx="26.0566" cy="431.35" fill="#F1F1F1" rx="8" ry="8" style="stroke:#181818;stroke-width:0.5;"/><path d="M26.0566,439.35 L26.0566,466.35 M13.0566,447.35 L39.0566,447.35 M26.0566,466.35 L13.0566,481.35 M26.0566,466.35 L39.0566,481.35" fill="none" style="stroke:#181818;stroke-width:0.5;"/><text fill="#000000" font-family="sans-serif" font-size="14" lengthAdjust="spacing" textLength="40.1133" x="6" y="495.8451">Leitor</text></g><!--link User to Register--><g class="link" data-entity-1="User" data-entity-2="Register" data-source-line="20" data-uid="lnk17" id="link_User_Register"><path d="M27.93,422.39 C30.64,337.39 41.6,137.77 85.11,89 C99.37,73.02 114.9625,65.9264 135.5225,61.7064" fill="none" id="User-to-Register" style="stroke:#181818;stroke-width:1;"/><polygon fill="#181818" points="141.4,60.5,131.7795,58.3912,136.5021,61.5053,133.388,66.2279,141.4,60.5" style="stroke:#181818;stroke-width:1;"/></g><!--link User to Login--><g class="link" data-entity-1="User" data-entity-2="Login" data-source-line="21" data-uid="lnk18" id="link_User_Login"><path d="M28.34,499.44 C31.76,574.83 43.86,737.74 85.11,772 C156.5,831.29 210.96,813.59 293.92,772 C402.25,717.68 463.7559,577.3261 481.9159,530.3661" fill="none" id="User-to-Login" style="stroke:#181818;stroke-width:1;"/><polygon fill="#181818" points="484.08,524.77,477.1031,531.7215,482.2766,529.4334,484.5646,534.6069,484.08,524.77" style="stroke:#181818;stroke-width:1;"/></g><!--link User to ImportHTML--><g class="link" data-entity-1="User" data-entity-2="ImportHTML" data-source-line="22" data-uid="lnk19" id="link_User_ImportHTML"><path d="M29.59,422.37 C35.11,349.88 50.59,197.33 85.11,159 C97.72,145 109.9569,138.1444 128.0069,133.0344" fill="none" id="User-to-ImportHTML" style="stroke:#181818;stroke-width:1;"/><polygon fill="#181818" points="133.78,131.4,124.0307,130.0028,128.9691,132.762,126.2099,137.7003,133.78,131.4" style="stroke:#181818;stroke-width:1;"/></g><!--link User to ReviewImport--><g class="link" data-entity-1="User" data-entity-2="ReviewImport" data-source-line="23" data-uid="lnk20" id="link_User_ReviewImport"><path d="M27.22,499.44 C28.5,583.39 36.72,778.84 85.11,819 C199.8,914.18 388.5067,798.7237 458.4167,749.7237" fill="none" id="User-to-ReviewImport" style="stroke:#181818;stroke-width:1;"/><polygon fill="#181818" points="463.33,746.28,453.6642,748.1701,459.2356,749.1498,458.2559,754.7212,463.33,746.28" style="stroke:#181818;stroke-width:1;"/></g><!--link User to CreateNote--><g class="link" data-entity-1="User" data-entity-2="CreateNote" data-source-line="24" data-uid="lnk21" id="link_User_CreateNote"><path d="M31.66,422.75 C39.61,362.96 57.73,251.25 85.11,223 C99.95,207.69 115.5296,200.7603 135.9296,196.4503" fill="none" id="User-to-CreateNote" style="stroke:#181818;stroke-width:1;"/><polygon fill="#181818" points="141.8,195.21,132.1675,193.1568,136.908,196.2436,133.8212,200.984,141.8,195.21" style="stroke:#181818;stroke-width:1;"/></g><!--link User to EditNote--><g class="link" data-entity-1="User" data-entity-2="EditNote" data-source-line="25" data-uid="lnk22" id="link_User_EditNote"><path d="M29.89,422.35 C34.82,383.39 48.29,324.13 85.11,289 C100.27,274.54 115.4644,267.7024 135.4344,263.0824" fill="none" id="User-to-EditNote" style="stroke:#181818;stroke-width:1;"/><polygon fill="#181818" points="141.28,261.73,131.61,259.8615,136.4087,262.857,133.4132,267.6556,141.28,261.73" style="stroke:#181818;stroke-width:1;"/></g><!--link User to DeleteNote--><g class="link" data-entity-1="User" data-entity-2="DeleteNote" data-source-line="26" data-uid="lnk23" id="link_User_DeleteNote"><path d="M39.6,422.39 C48.83,399.72 63.56,372.22 85.11,355 C101.31,342.06 116.5197,335.6068 136.1897,330.8268" fill="none" id="User-to-DeleteNote" style="stroke:#181818;stroke-width:1;"/><polygon fill="#181818" points="142.02,329.41,132.33,327.6484,137.1614,330.5907,134.2191,335.4221,142.02,329.41" style="stroke:#181818;stroke-width:1;"/></g><!--link User to AddTag--><g class="link" data-entity-1="User" data-entity-2="AddTag" data-source-line="27" data-uid="lnk24" id="link_User_AddTag"><path d="M46.37,446.29 C57.28,438.52 71.45,429.32 85.11,423 C105.59,413.53 123.5359,407.5582 144.1359,402.0182" fill="none" id="User-to-AddTag" style="stroke:#181818;stroke-width:1;"/><polygon fill="#181818" points="149.93,400.46,140.2,398.9346,145.1016,401.7585,142.2776,406.6601,149.93,400.46" style="stroke:#181818;stroke-width:1;"/></g><!--link User to GroupInfo--><g class="link" data-entity-1="User" data-entity-2="GroupInfo" data-source-line="28" data-uid="lnk25" id="link_User_GroupInfo"><path d="M46.28,461 C61.9,461 79.15,461 102.89,461" fill="none" id="User-to-GroupInfo" style="stroke:#181818;stroke-width:1;"/><polygon fill="#181818" points="108.89,461,99.89,457,103.89,461,99.89,465,108.89,461" style="stroke:#181818;stroke-width:1;"/></g><!--link User to FilterTag--><g class="link" data-entity-1="User" data-entity-2="FilterTag" data-source-line="29" data-uid="lnk26" id="link_User_FilterTag"><path d="M46.39,475.66 C57.31,483.42 71.47,492.62 85.11,499 C105.69,508.61 123.7788,514.7546 144.4488,520.4946" fill="none" id="User-to-FilterTag" style="stroke:#181818;stroke-width:1;"/><polygon fill="#181818" points="150.23,522.1,142.6284,515.8377,145.4123,520.7621,140.4879,523.546,150.23,522.1" style="stroke:#181818;stroke-width:1;"/></g><!--link User to ViewNote--><g class="link" data-entity-1="User" data-entity-2="ViewNote" data-source-line="30" data-uid="lnk27" id="link_User_ViewNote"><path d="M39.51,499.58 C48.73,522.47 63.49,550.37 85.11,568 C100.37,580.43 114.1967,586.8619 132.9067,592.0319" fill="none" id="User-to-ViewNote" style="stroke:#181818;stroke-width:1;"/><polygon fill="#181818" points="138.69,593.63,131.0805,587.3774,133.8706,592.2983,128.9497,595.0884,138.69,593.63" style="stroke:#181818;stroke-width:1;"/></g><!--link User to Search--><g class="link" data-entity-1="User" data-entity-2="Search" data-source-line="31" data-uid="lnk28" id="link_User_Search"><path d="M29.34,499.32 C33.79,539.41 46.87,601.49 85.11,638 C104.06,656.09 126.3838,663.247 150.1838,666.747" fill="none" id="User-to-Search" style="stroke:#181818;stroke-width:1;"/><polygon fill="#181818" points="156.12,667.62,147.7977,662.3531,151.1732,666.8925,146.6338,670.268,156.12,667.62" style="stroke:#181818;stroke-width:1;"/></g><!--link User to ManageTags--><g class="link" data-entity-1="User" data-entity-2="ManageTags" data-source-line="32" data-uid="lnk29" id="link_User_ManageTags"><path d="M31.61,499.16 C39.54,559.47 57.72,672.96 85.11,702 C98.12,715.78 110.5756,722.5602 128.7156,727.6802" fill="none" id="User-to-ManageTags" style="stroke:#181818;stroke-width:1;"/><polygon fill="#181818" points="134.49,729.31,126.9149,723.0157,129.678,727.9518,124.7419,730.7149,134.49,729.31" style="stroke:#181818;stroke-width:1;"/></g><!--link Register to Login--><g class="link" data-entity-1="Register" data-entity-2="Login" data-source-line="34" data-uid="lnk30" id="link_Register_Login"><path d="M250.51,66.02 C265.79,70.8 281.84,78.05 293.92,89 C425.89,208.61 474.6572,429.5622 485.8372,489.3522" fill="none" id="Register-to-Login" style="stroke:#181818;stroke-width:1;stroke-dasharray:7.0,7.0;"/><polygon fill="#181818" points="486.94,495.25,489.2176,485.6681,486.021,490.3352,481.3539,487.1385,486.94,495.25" style="stroke:#181818;stroke-width:1;"/><text fill="#000000" font-family="sans-serif" font-size="13" lengthAdjust="spacing" textLength="45.2778" x="325.92" y="121.0669">extend</text></g><!--link ImportHTML to ReviewImport--><g class="link" data-entity-1="ImportHTML" data-entity-2="ReviewImport" data-source-line="35" data-uid="lnk31" id="link_ImportHTML_ReviewImport"><path d="M257.33,135.72 C270.82,140.91 284.17,148.34 293.92,159 C353.67,224.27 371.96,459.1 402.92,542 C426,603.79 458.4644,668.1358 476.0144,701.6158" fill="none" id="ImportHTML-to-ReviewImport" style="stroke:#181818;stroke-width:1;stroke-dasharray:7.0,7.0;"/><polygon fill="#181818" points="478.8,706.93,478.1643,697.1017,476.4786,702.5015,471.0788,700.8159,478.8,706.93" style="stroke:#181818;stroke-width:1;"/><text fill="#000000" font-family="sans-serif" font-size="13" lengthAdjust="spacing" textLength="47.0996" x="324.92" y="212.0669">include</text></g><!--SRC=[PP9DRi8m48NtFiKeUpX05vKeRIaIT06K_SWUp4Z1HhP3KQkUfekUe2VWOhMJr1XO9VFcyyzxuves0O85nteRGB4Z6TWQWJ9O1zMCE7uhG0zldfmGgOz6rmJLadsW7LRmAG0QJn9zLCUeq0U7tQ85wKIvafXPtNVZ7vkoDTtjhGleu6KrdxL8fwIov1PqO1ynxlZJp-dRzkSTcDwxHHUtSXnnOmEssDWH1dgrWKheIN4egLJVC4TPDrn0ZrJJxLOZnJB667SBg5jkfDGAzGMZNRDF9ip6kbqoyKk-PIVEDljfb4lycUiKAqHhUTEaaRlQTys-mPe_IYlhcChr7HyQB_j1B0cTt9RD2JaoaZi3tQtcQ51JFCoBBo7ISu31uFuyugnqOyrbCS9YKJ6dh1PZoLeUGbQAnBFMfvlhSu9PEcULfPnALleWSbru5lz6OJZiFS8Tq36GKUBiiUsMzYB49ZuQHNy0]--></g></svg>