<svg xmlns="http://www.w3.org/2000/svg" xmlns:xlink="http://www.w3.org/1999/xlink" contentStyleType="text/css" data-diagram-type="DESCRIPTION" height="895px" preserveAspectRatio="none" style="width:565px;height:895px;background:#FFFFFF;" version="1.1" viewBox="0 0 565 895" width="565px" zoomAndPan="magnify"><defs/><g><!--cluster System--><g class="cluster" data-entity="System" data-source-line="4" data-uid="ent0003" id="cluster_System"><rect fill="none" height="747" rx="2.5" ry="2.5" style="stroke:#181818;stroke-width:1;" width="456.07" x="103.18" y="7"/><text fill="#000000" font-family="sans-serif" font-size="14" font-weight="bold" lengthAdjust="spacing" textLength="58.3174" x="302.0563" y="21.9951">System</text></g><g class="entity" data-entity="Register" data-source-line="5" data-uid="ent0004" id="entity_Register"><ellipse cx="203.4584" cy="57.0032" fill="#F1F1F1" rx="53.5484" ry="14.7232" style="stroke:#181818;stroke-width:0.5;"/><text fill="#000000" font-family="sans-serif" font-size="14" lengthAdjust="spacing" textLength="58.2695" x="171.3236" y="60.7507">Register</text></g><g class="entity" data-entity="Login" data-source-line="6" data-uid="ent0005" id="entity_Login"><ellipse cx="470.0041" cy="498.9957" fill="#F1F1F1" rx="38.4641" ry="14.5557" style="stroke:#181818;stroke-width:0.5;"/><text fill="#000000" font-family="sans-serif" font-size="14" lengthAdjust="spacing" textLength="38.0146" x="449.13" y="502.4506">Login</text></g><g class="entity" data-entity="ImportHTML" data-source-line="7" data-uid="ent0006" id="entity_ImportHTML"><ellipse cx="203.4575" cy="123.0035" fill="#F1F1F1" rx="68.9175" ry="16.1835" style="stroke:#181818;stroke-width:0.5;"/><text fill="#000000" font-family="sans-serif" font-size="14" lengthAdjust="spacing" textLength="89.8721" x="155.5215" y="126.7511">Import HTML</text></g><g class="entity" data-entity="ReviewImport" data-source-line="8" data-uid="ent0007" id="entity_ReviewImport"><ellipse cx="469.9963" cy="712.0013" fill="#F1F1F1" rx="73.2563" ry="17.0513" style="stroke:#181818;stroke-width:0.5;"/><text fill="#000000" font-family="sans-serif" font-size="14" lengthAdjust="spacing" textLength="101.4932" x="416.2497" y="715.7488">Review Import</text></g><g class="entity" data-entity="CreateNote" data-source-line="9" data-uid="ent0008" id="entity_CreateNote"><ellipse cx="203.4614" cy="190.0023" fill="#F1F1F1" rx="66.9614" ry="15.7923" style="stroke:#181818;stroke-width:0.5;"/><text fill="#000000" font-family="sans-serif" font-size="14" lengthAdjust="spacing" textLength="84.417" x="158.2529" y="193.7498">Create Note</text></g><g class="entity" data-entity="EditNote" data-source-line="10" data-uid="ent0009" id="entity_EditNote"><ellipse cx="203.4607" cy="256.0003" fill="#F1F1F1" rx="58.3507" ry="14.7603" style="stroke:#181818;stroke-width:0.5;"/><text fill="#000000" font-family="sans-serif" font-size="14" lengthAdjust="spacing" textLength="64.7021" x="168.1096" y="259.7479">Edit Note</text></g><g class="entity" data-entity="DeleteNote" data-source-line="11" data-uid="ent0010" id="entity_DeleteNote"><ellipse cx="203.4598" cy="321.004" fill="#F1F1F1" rx="66.6698" ry="15.734" style="stroke:#181818;stroke-width:0.5;"/><text fill="#000000" font-family="sans-serif" font-size="14" lengthAdjust="spacing" textLength="83.5898" x="158.6648" y="324.7515">Delete Note</text></g><g class="entity" data-entity="AddTag" data-source-line="12" data-uid="ent0011" id="entity_AddTag"><ellipse cx="203.4616" cy="386.0003" fill="#F1F1F1" rx="53.2116" ry="14.7203" style="stroke:#181818;stroke-width:0.5;"/><text fill="#000000" font-family="sans-serif" font-size="14" lengthAdjust="spacing" textLength="57.8184" x="171.5524" y="389.7479">Add Tag</text></g><g class="entity" data-entity="GroupInfo" data-source-line="13" data-uid="ent0012" id="entity_GroupInfo"><ellipse cx="203.462" cy="454.9964" fill="#F1F1F1" rx="84.282" ry="19.2564" style="stroke:#181818;stroke-width:0.5;"/><text fill="#000000" font-family="sans-serif" font-size="14" lengthAdjust="spacing" textLength="128.666" x="138.9611" y="457.9011">Group Information</text></g><g class="entity" data-entity="FilterTag" data-source-line="14" data-uid="ent0013" id="entity_FilterTag"><ellipse cx="203.4609" cy="525.0022" fill="#F1F1F1" rx="68.1609" ry="16.0322" style="stroke:#181818;stroke-width:0.5;"/><text fill="#000000" font-family="sans-serif" font-size="14" lengthAdjust="spacing" textLength="87.7803" x="156.5707" y="528.7497">Filter by Tag</text></g><g class="entity" data-entity="ViewNote" data-source-line="15" data-uid="ent0014" id="entity_ViewNote"><ellipse cx="203.4589" cy="590.9998" fill="#F1F1F1" rx="62.4489" ry="14.8898" style="stroke:#181818;stroke-width:0.5;"/><text fill="#000000" font-family="sans-serif" font-size="14" lengthAdjust="spacing" textLength="71.1211" x="164.8983" y="594.7473">View Note</text></g><g class="entity" data-entity="Search" data-source-line="16" data-uid="ent0015" id="entity_Search"><ellipse cx="203.4561" cy="656.0013" fill="#F1F1F1" rx="46.1861" ry="14.6513" style="stroke:#181818;stroke-width:0.5;"/><text fill="#000000" font-family="sans-serif" font-size="14" lengthAdjust="spacing" textLength="48.4053" x="176.2534" y="659.7488">Search</text></g><g class="entity" data-entity="ManageTags" data-source-line="17" data-uid="ent0016" id="entity_ManageTags"><ellipse cx="203.4609" cy="722.0002" fill="#F1F1F1" rx="70.2009" ry="16.4402" style="stroke:#181818;stroke-width:0.5;"/><text fill="#000000" font-family="sans-serif" font-size="14" lengthAdjust="spacing" textLength="93.3721" x="153.7748" y="725.7477">Manage Tags</text></g><!--entity User--><g class="entity" data-entity="User" data-source-line="2" data-uid="ent0002" id="entity_User"><ellipse cx="31.0879" cy="425.35" fill="#F1F1F1" rx="8" ry="8" style="stroke:#181818;stroke-width:0.5;"/><path d="M31.0879,433.35 L31.0879,460.35 M18.0879,441.35 L44.0879,441.35 M31.0879,460.35 L18.0879,475.35 M31.0879,460.35 L44.0879,475.35" fill="none" style="stroke:#181818;stroke-width:0.5;"/><text fill="#000000" font-family="sans-serif" font-size="14" lengthAdjust="spacing" textLength="50.1758" x="6" y="489.8451">Reader</text></g><!--link User to Register--><g class="link" data-entity-1="User" data-entity-2="Register" data-source-line="20" data-uid="lnk17" id="link_User_Register"><path d="M33.71,416.42 C38.02,332.51 52.49,137.11 95.18,89 C109.3,73.08 125.0913,66.1302 145.2713,62.0102" fill="none" id="User-to-Register" style="stroke:#181818;stroke-width:1;"/><polygon fill="#181818" points="151.15,60.81,141.5318,58.6912,146.2511,61.8102,143.132,66.5295,151.15,60.81" style="stroke:#181818;stroke-width:1;"/></g><!--link User to Login--><g class="link" data-entity-1="User" data-entity-2="Login" data-source-line="21" data-uid="lnk18" id="link_User_Login"><path d="M34.3,493.39 C39.43,566.93 54.92,723.31 95.18,756 C161.61,809.96 211.76,795.39 287.74,756 C390.99,702.48 445.9181,565.7732 462.1281,519.4532" fill="none" id="User-to-Login" style="stroke:#181818;stroke-width:1;"/><polygon fill="#181818" points="464.11,513.79,457.3617,520.9636,462.4584,518.5094,464.9127,523.6061,464.11,513.79" style="stroke:#181818;stroke-width:1;"/></g><!--link User to ImportHTML--><g class="link" data-entity-1="User" data-entity-2="ImportHTML" data-source-line="22" data-uid="lnk19" id="link_User_ImportHTML"><path d="M35.44,416.61 C42.45,344.99 60.91,194.82 95.18,157 C107.25,143.68 118.7362,137.217 135.8862,132.257" fill="none" id="User-to-ImportHTML" style="stroke:#181818;stroke-width:1;"/><polygon fill="#181818" points="141.65,130.59,131.893,129.2479,136.8468,131.9791,134.1156,136.933,141.65,130.59" style="stroke:#181818;stroke-width:1;"/></g><!--link User to ReviewImport--><g class="link" data-entity-1="User" data-entity-2="ReviewImport" data-source-line="23" data-uid="lnk20" id="link_User_ReviewImport"><path d="M33.13,493.6 C36.25,575.37 48.44,761.69 95.18,800 C203.2,888.56 379.8968,776.7403 442.2968,731.9203" fill="none" id="User-to-ReviewImport" style="stroke:#181818;stroke-width:1;"/><polygon fill="#181818" points="447.17,728.42,437.5267,730.4216,443.109,731.3369,442.1937,736.9192,447.17,728.42" style="stroke:#181818;stroke-width:1;"/></g><!--link User to CreateNote--><g class="link" data-entity-1="User" data-entity-2="CreateNote" data-source-line="24" data-uid="lnk21" id="link_User_CreateNote"><path d="M31.89,416.45 C33.74,365.66 44.63,276.62 95.18,224 C108.03,210.61 120.3407,204.0924 138.0107,199.1624" fill="none" id="User-to-CreateNote" style="stroke:#181818;stroke-width:1;"/><polygon fill="#181818" points="143.79,197.55,134.0461,196.1158,138.9739,198.8937,136.196,203.8215,143.79,197.55" style="stroke:#181818;stroke-width:1;"/></g><!--link User to EditNote--><g class="link" data-entity-1="User" data-entity-2="EditNote" data-source-line="25" data-uid="lnk22" id="link_User_EditNote"><path d="M36.74,416.42 C43.31,378.58 58.88,321.79 95.18,288 C109.9,274.29 124.4103,267.8178 143.4403,263.3278" fill="none" id="User-to-EditNote" style="stroke:#181818;stroke-width:1;"/><polygon fill="#181818" points="149.28,261.95,139.602,260.1236,144.4136,263.0982,141.4391,267.9098,149.28,261.95" style="stroke:#181818;stroke-width:1;"/></g><!--link User to DeleteNote--><g class="link" data-entity-1="User" data-entity-2="DeleteNote" data-source-line="26" data-uid="lnk23" id="link_User_DeleteNote"><path d="M47.9,416.6 C58.42,395.38 74.2,370.13 95.18,354 C110.32,342.36 123.8013,336.3782 141.8113,331.4682" fill="none" id="User-to-DeleteNote" style="stroke:#181818;stroke-width:1;"/><polygon fill="#181818" points="147.6,329.89,137.8648,328.3981,142.7761,331.2051,139.969,336.1164,147.6,329.89" style="stroke:#181818;stroke-width:1;"/></g><!--link User to AddTag--><g class="link" data-entity-1="User" data-entity-2="AddTag" data-source-line="27" data-uid="lnk24" id="link_User_AddTag"><path d="M56.53,438.81 C67.94,431.74 81.9,423.77 95.18,418 C116.56,408.7 135.6734,402.6392 156.1034,397.1792" fill="none" id="User-to-AddTag" style="stroke:#181818;stroke-width:1;"/><polygon fill="#181818" points="161.9,395.63,152.1724,394.0894,157.0695,396.921,154.2379,401.8181,161.9,395.63" style="stroke:#181818;stroke-width:1;"/></g><!--link User to GroupInfo--><g class="link" data-entity-1="User" data-entity-2="GroupInfo" data-source-line="28" data-uid="lnk25" id="link_User_GroupInfo"><path d="M56.5,455 C73.06,455 90.02,455 112.82,455" fill="none" id="User-to-GroupInfo" style="stroke:#181818;stroke-width:1;"/><polygon fill="#181818" points="118.82,455,109.82,451,113.82,455,109.82,459,118.82,455" style="stroke:#181818;stroke-width:1;"/></g><!--link User to FilterTag--><g class="link" data-entity-1="User" data-entity-2="FilterTag" data-source-line="29" data-uid="lnk26" id="link_User_FilterTag"><path d="M56.56,471.14 C67.97,478.2 81.93,486.17 95.18,492 C114.44,500.48 130.773,506.0141 149.893,511.5041" fill="none" id="User-to-FilterTag" style="stroke:#181818;stroke-width:1;"/><polygon fill="#181818" points="155.66,513.16,148.1135,506.8315,150.8542,511.7801,145.9056,514.5208,155.66,513.16" style="stroke:#181818;stroke-width:1;"/></g><!--link User to ViewNote--><g class="link" data-entity-1="User" data-entity-2="ViewNote" data-source-line="30" data-uid="lnk27" id="link_User_ViewNote"><path d="M47.1,493.59 C57.52,515.66 73.45,542.22 95.18,559 C110.71,571 124.8749,577.0319 143.3649,581.7319" fill="none" id="User-to-ViewNote" style="stroke:#181818;stroke-width:1;"/><polygon fill="#181818" points="149.18,583.21,141.4428,577.1161,144.3341,581.9782,139.472,584.8695,149.18,583.21" style="stroke:#181818;stroke-width:1;"/></g><!--link User to Search--><g class="link" data-entity-1="User" data-entity-2="Search" data-source-line="31" data-uid="lnk28" id="link_User_Search"><path d="M36.67,493.39 C43.21,531.4 58.76,588.73 95.18,623 C112.42,639.23 131.5708,646.3322 153.1208,650.5322" fill="none" id="User-to-Search" style="stroke:#181818;stroke-width:1;"/><polygon fill="#181818" points="159.01,651.68,150.9414,646.0322,154.1023,650.7235,149.411,653.8845,159.01,651.68" style="stroke:#181818;stroke-width:1;"/></g><!--link User to ManageTags--><g class="link" data-entity-1="User" data-entity-2="ManageTags" data-source-line="32" data-uid="lnk29" id="link_User_ManageTags"><path d="M31.77,493.44 C33.46,544.59 44.14,634.75 95.18,688 C107.48,700.84 118.8342,707.1455 135.7842,712.1355" fill="none" id="User-to-ManageTags" style="stroke:#181818;stroke-width:1;"/><polygon fill="#181818" points="141.54,713.83,134.036,707.4511,136.7435,712.4179,131.7767,715.1255,141.54,713.83" style="stroke:#181818;stroke-width:1;"/></g><!--link Register to Login--><g class="link" data-entity-1="Register" data-entity-2="Login" data-source-line="34" data-uid="lnk30" id="link_Register_Login"><path d="M246.62,66.13 C261.05,70.96 276.41,78.22 287.74,89 C412.04,207.31 455.6778,420.076 465.6678,478.446" fill="none" id="Register-to-Login" style="stroke:#181818;stroke-width:1;stroke-dasharray:7.0,7.0;"/><polygon fill="#181818" points="466.68,484.36,469.1044,474.8142,465.8365,479.4317,461.2191,476.1638,466.68,484.36" style="stroke:#181818;stroke-width:1;"/><text fill="#000000" font-family="sans-serif" font-size="13" lengthAdjust="spacing" textLength="45.2778" x="319.74" y="121.0669">extend</text></g><!--link ImportHTML to ReviewImport--><g class="link" data-entity-1="ImportHTML" data-entity-2="ReviewImport" data-source-line="35" data-uid="lnk31" id="link_ImportHTML_ReviewImport"><path d="M253.1,134.52 C265.82,139.58 278.54,146.79 287.74,157 C345.69,221.31 368.55,449.15 396.74,531 C417.79,592.1 445.2701,657.2722 459.0801,689.2322" fill="none" id="ImportHTML-to-ReviewImport" style="stroke:#181818;stroke-width:1;stroke-dasharray:7.0,7.0;"/><polygon fill="#181818" points="461.46,694.74,461.562,684.8917,459.4767,690.1502,454.2182,688.0649,461.46,694.74" style="stroke:#181818;stroke-width:1;"/><text fill="#000000" font-family="sans-serif" font-size="13" lengthAdjust="spacing" textLength="47.0996" x="318.74" y="209.0669">include</text></g><!--SRC=[NL7DJiCm3BxdAQpUjmVWW3JnEsdZm0Rtq7XPf3QPaWoO4EzEdNIkwStVZ-FuSuU733b0TFQOmRY8RNR1Aztc4A5vHMqmDg0Jl2MCIf6klUqGcjqbPUmR-540vuIjJaWDrWrqRRa2QTW4wtnHIoMbTNyACSFpVhifXee9_f_mwV1h5CSnn5H2EkyYwepm4Z8MNyK4fUl1k3nv2CqTzzYXVAVYkMjb3EorBOwX7agfFiLmFi7Q7qBiDILSV8KbKbeVNJTa1XyNVguoinVVAGN-4w7vZtQeOtiiSYsbkDLUMwGHgJWg9gX-bQ9Zms9nEvsGcNesXk98eaaSX5aHFtCSDpCYNER6E1bFiJ4rHSGKHyBCc09ZiREwBWhBvRWZt01-P_H6JJiMLQutc9nlkxF1Fm00]--></g></svg>